<svg xmlns="http://www.w3.org/2000/svg" viewBox="0 0 64 64">
  <defs>
    <linearGradient id="bg" x1="0%" y1="0%" x2="100%" y2="100%">
      <stop offset="0%" stop-color="#163b2e" />
      <stop offset="100%" stop-color="#2d8f62" />
    </linearGradient>
    <linearGradient id="orb" x1="0%" y1="0%" x2="100%" y2="100%">
      <stop offset="0%" stop-color="#d6ffe8" />
      <stop offset="100%" stop-color="#8de2b2" />
    </linearGradient>
  </defs>
  <rect width="64" height="64" rx="16" fill="url(#bg)" />
  <circle cx="32" cy="32" r="19" fill="url(#orb)" opacity="0.95" />
  <path
    d="M15 33h34M19 24c6 4 20 4 26 0M19 42c6-4 20-4 26 0M32 13c-5 6-7 12-7 19s2 13 7 19M32 13c5 6 7 12 7 19s-2 13-7 19"
    fill="none"
    stroke="#163b2e"
    stroke-linecap="round"
    stroke-width="2.4"
  />
  <path
    d="M44 46c0 4-3.3 7-7.4 7-2.8 0-5-1.2-6.5-3.5 1.9 0.2 3.9-0.6 5.2-2.1 1.7-1.8 2-4.3 1.2-6.4 4.2 0.1 7.5 2.2 7.5 5z"
    fill="#f7fff9"
  />
</svg>
